<?xml version="1.0" encoding="utf-8"?>
<svg viewBox="200 109.813 175.203 46.938" xmlns="http://www.w3.org/2000/svg">
  <path d="M 207.809 147.496 L 202.449 147.496 L 202.449 126.536 L 207.809 126.536 L 207.809 147.496 Z M 207.809 123.616 L 202.449 123.616 L 202.449 118.296 L 207.809 118.296 L 207.809 123.616 ZM 227.727 132.096 L 222.887 119.176 L 228.007 119.176 L 231.247 128.576 L 234.527 119.176 L 239.607 119.176 L 234.727 132.096 L 238.327 141.136 L 246.367 119.096 L 252.367 119.096 L 241.007 147.496 L 236.247 147.496 L 231.247 135.576 L 226.287 147.496 L 221.527 147.496 L 210.207 119.096 L 216.127 119.096 L 224.207 141.136 L 227.727 132.096 ZM 261.68 147.896 C 260 147.896 258.48 147.609 257.12 147.036 C 255.76 146.463 254.6 145.676 253.64 144.676 C 252.68 143.676 251.94 142.529 251.42 141.236 C 250.9 139.943 250.64 138.576 250.64 137.136 C 250.64 135.136 251.087 133.309 251.98 131.656 C 252.873 130.003 254.153 128.676 255.82 127.676 C 257.487 126.676 259.453 126.176 261.72 126.176 C 264.013 126.176 265.973 126.676 267.6 127.676 C 269.227 128.676 270.473 129.996 271.34 131.636 C 272.207 133.276 272.64 135.043 272.64 136.936 C 272.64 137.256 272.627 137.583 272.6 137.916 C 272.573 138.249 272.547 138.523 272.52 138.736 L 256.32 138.736 C 256.427 139.803 256.74 140.736 257.26 141.536 C 257.78 142.336 258.447 142.943 259.26 143.356 C 260.073 143.769 260.947 143.976 261.88 143.976 C 262.947 143.976 263.953 143.716 264.9 143.196 C 265.847 142.676 266.493 141.989 266.84 141.136 L 271.44 142.416 C 270.933 143.483 270.207 144.429 269.26 145.256 C 268.313 146.083 267.2 146.729 265.92 147.196 C 264.64 147.663 263.227 147.896 261.68 147.896 Z M 256.2 135.336 L 267.16 135.336 C 267.053 134.269 266.753 133.343 266.26 132.556 C 265.767 131.769 265.12 131.156 264.32 130.716 C 263.52 130.276 262.627 130.056 261.64 130.056 C 260.68 130.056 259.807 130.276 259.02 130.716 C 258.233 131.156 257.593 131.769 257.1 132.556 C 256.607 133.343 256.307 134.269 256.2 135.336 ZM 274.476 141.296 C 274.476 139.936 274.856 138.743 275.616 137.716 C 276.376 136.689 277.436 135.896 278.796 135.336 C 280.156 134.776 281.716 134.496 283.476 134.496 C 284.356 134.496 285.249 134.563 286.156 134.696 C 287.062 134.829 287.849 135.043 288.516 135.336 L 288.516 134.216 C 288.516 132.883 288.122 131.856 287.336 131.136 C 286.549 130.416 285.382 130.056 283.836 130.056 C 282.689 130.056 281.596 130.256 280.556 130.656 C 279.516 131.056 278.422 131.643 277.276 132.416 L 275.556 128.896 C 276.942 127.989 278.362 127.309 279.816 126.856 C 281.269 126.403 282.796 126.176 284.396 126.176 C 287.382 126.176 289.709 126.923 291.376 128.416 C 293.042 129.909 293.876 132.043 293.876 134.816 L 293.876 141.496 C 293.876 142.056 293.976 142.456 294.176 142.696 C 294.376 142.936 294.702 143.083 295.156 143.136 L 295.156 147.496 C 294.676 147.576 294.242 147.643 293.856 147.696 C 293.469 147.749 293.142 147.776 292.876 147.776 C 291.809 147.776 291.002 147.536 290.456 147.056 C 289.909 146.576 289.569 145.989 289.436 145.296 L 289.316 144.216 C 288.409 145.389 287.276 146.296 285.916 146.936 C 284.556 147.576 283.169 147.896 281.756 147.896 C 280.369 147.896 279.122 147.609 278.016 147.036 C 276.909 146.463 276.042 145.676 275.416 144.676 C 274.789 143.676 274.476 142.549 274.476 141.296 Z M 287.516 142.376 C 287.809 142.056 288.049 141.736 288.236 141.416 C 288.422 141.096 288.516 140.803 288.516 140.536 L 288.516 138.416 C 287.876 138.149 287.182 137.943 286.436 137.796 C 285.689 137.649 284.982 137.576 284.316 137.576 C 282.929 137.576 281.789 137.876 280.896 138.476 C 280.002 139.076 279.556 139.869 279.556 140.856 C 279.556 141.389 279.702 141.896 279.996 142.376 C 280.289 142.856 280.716 143.243 281.276 143.536 C 281.836 143.829 282.502 143.976 283.276 143.976 C 284.076 143.976 284.862 143.823 285.636 143.516 C 286.409 143.209 287.036 142.829 287.516 142.376 ZM 310.151 142.176 L 311.231 146.416 C 310.778 146.603 310.231 146.816 309.591 147.056 C 308.951 147.296 308.265 147.489 307.531 147.636 C 306.798 147.783 306.058 147.856 305.311 147.856 C 304.325 147.856 303.418 147.683 302.591 147.336 C 301.765 146.989 301.105 146.436 300.611 145.676 C 300.118 144.916 299.871 143.923 299.871 142.696 L 299.871 130.656 L 297.111 130.656 L 297.111 126.536 L 299.871 126.536 L 299.871 119.736 L 305.231 119.736 L 305.231 126.536 L 309.631 126.536 L 309.631 130.656 L 305.231 130.656 L 305.231 140.896 C 305.258 141.616 305.458 142.136 305.831 142.456 C 306.205 142.776 306.671 142.936 307.231 142.936 C 307.791 142.936 308.338 142.843 308.871 142.656 C 309.405 142.469 309.831 142.309 310.151 142.176 ZM 333.509 134.416 L 333.509 147.496 L 328.149 147.496 L 328.149 135.736 C 328.149 134.109 327.835 132.896 327.209 132.096 C 326.582 131.296 325.722 130.896 324.629 130.896 C 323.989 130.896 323.309 131.083 322.589 131.456 C 321.869 131.829 321.222 132.343 320.649 132.996 C 320.075 133.649 319.655 134.403 319.389 135.256 L 319.389 147.496 L 314.029 147.496 L 314.029 118.296 L 319.389 118.296 L 319.389 130.416 C 320.162 129.083 321.215 128.043 322.549 127.296 C 323.882 126.549 325.335 126.176 326.909 126.176 C 328.269 126.176 329.375 126.409 330.229 126.876 C 331.082 127.343 331.749 127.969 332.229 128.756 C 332.709 129.543 333.042 130.423 333.229 131.396 C 333.415 132.369 333.509 133.376 333.509 134.416 ZM 347.904 147.896 C 346.224 147.896 344.704 147.609 343.344 147.036 C 341.984 146.463 340.824 145.676 339.864 144.676 C 338.904 143.676 338.164 142.529 337.644 141.236 C 337.124 139.943 336.864 138.576 336.864 137.136 C 336.864 135.136 337.311 133.309 338.204 131.656 C 339.097 130.003 340.377 128.676 342.044 127.676 C 343.711 126.676 345.677 126.176 347.944 126.176 C 350.237 126.176 352.197 126.676 353.824 127.676 C 355.451 128.676 356.697 129.996 357.564 131.636 C 358.431 133.276 358.864 135.043 358.864 136.936 C 358.864 137.256 358.851 137.583 358.824 137.916 C 358.797 138.249 358.771 138.523 358.744 138.736 L 342.544 138.736 C 342.651 139.803 342.964 140.736 343.484 141.536 C 344.004 142.336 344.671 142.943 345.484 143.356 C 346.297 143.769 347.171 143.976 348.104 143.976 C 349.171 143.976 350.177 143.716 351.124 143.196 C 352.071 142.676 352.717 141.989 353.064 141.136 L 357.664 142.416 C 357.157 143.483 356.431 144.429 355.484 145.256 C 354.537 146.083 353.424 146.729 352.144 147.196 C 350.864 147.663 349.451 147.896 347.904 147.896 Z M 342.424 135.336 L 353.384 135.336 C 353.277 134.269 352.977 133.343 352.484 132.556 C 351.991 131.769 351.344 131.156 350.544 130.716 C 349.744 130.276 348.851 130.056 347.864 130.056 C 346.904 130.056 346.031 130.276 345.244 130.716 C 344.457 131.156 343.817 131.769 343.324 132.556 C 342.831 133.343 342.531 134.269 342.424 135.336 ZM 374.62 126.296 L 374.62 131.176 C 372.993 131.176 371.54 131.489 370.26 132.116 C 368.98 132.743 368.06 133.643 367.5 134.816 L 367.5 147.496 L 362.14 147.496 L 362.14 126.536 L 367.06 126.536 L 367.06 131.016 C 367.806 129.576 368.753 128.443 369.9 127.616 C 371.046 126.789 372.26 126.336 373.54 126.256 C 373.833 126.256 374.06 126.256 374.22 126.256 C 374.38 126.256 374.513 126.269 374.62 126.296 Z" transform="matrix(1, 0, 0, 1, 0, 0)" style="fill: rgb(42, 82, 97); white-space: pre;"/>
</svg>