<?xml version="1.0" encoding="utf-8"?>
<svg viewBox="100 125.341 100 74.659" xmlns="http://www.w3.org/2000/svg">
  <rect x="100" y="125.341" width="100" height="74.659" style="fill: rgb(248, 208, 108);"/>
  <g transform="matrix(1.439757, 0, 0, 1.439757, -72.016801, -32.471913)" style="">
    <path d="M 148.165 129.472 C 153.65 129.472 158.381 133.312 159.448 138.618 L 160.076 141.714 L 163.279 141.942 C 166.545 142.148 169.099 144.852 169.099 148.052 C 169.099 151.459 166.273 154.246 162.819 154.246 L 135.605 154.246 C 130.978 154.246 127.231 150.55 127.231 145.988 C 127.231 141.756 130.434 138.226 134.683 137.792 L 136.923 137.565 L 137.97 135.604 C 139.959 131.826 143.853 129.472 148.165 129.472 M 148.165 125.343 C 142.115 125.343 136.861 128.729 134.244 133.684 C 127.943 134.344 123.044 139.609 123.044 145.988 C 123.044 152.821 128.675 158.374 135.605 158.374 L 162.819 158.374 C 168.597 158.374 173.286 153.75 173.286 148.052 C 173.286 142.602 168.994 138.184 163.551 137.813 C 162.128 130.69 155.785 125.343 148.165 125.343 Z" style="fill: rgb(42, 82, 97);"/>
    <g>
      <path style="fill: none; stroke: rgb(42, 82, 97); stroke-width: 4px;" d="M 160.055 118.957 C 169.946 118.947 176.138 129.648 171.201 138.219 C 168.91 142.196 164.671 144.649 160.08 144.654" transform="matrix(0.689192, -0.724579, 0.724579, 0.689192, -43.755442, 161.605057)"/>
      <rect x="175.109" y="138.6" width="4" height="6.667" style="fill: rgb(42, 82, 97); stroke-width: 0px;" transform="matrix(0.766681, -0.642028, 0.642028, 0.766681, -77.138016, 125.628525)"/>
      <rect x="175.108" y="138.6" width="4" height="6.668" style="fill: rgb(42, 82, 97);" transform="matrix(0.593959, -0.804495, 0.804495, 0.593959, -40.953716, 205.806503)"/>
      <rect x="175.108" y="138.6" width="4" height="6.668" style="fill: rgb(42, 82, 97);" transform="matrix(-0.718434, -0.695595, 0.695595, -0.718434, 204.254639, 346.53833)"/>
      <rect x="175.108" y="138.6" width="4" height="6.668" style="fill: rgb(42, 82, 97);" transform="matrix(0.999874, -0.015905, 0.015905, 0.999874, -16.449097, -22.798063)"/>
      <rect x="175.108" y="138.6" width="4" height="6.668" style="fill: rgb(42, 82, 97);" transform="matrix(-0.086977, -0.99621, 0.99621, -0.086977, 56.353287, 322.877502)"/>
    </g>
  </g>
</svg>